<svg width="32" height="34" viewBox="0 0 32 34" fill="none" xmlns="http://www.w3.org/2000/svg">
<path d="M8.052 13.472C9.076 12.6187 9.892 11.9093 10.5 11.344C11.108 10.768 11.6147 10.1707 12.02 9.552C12.4253 8.93333 12.628 8.32533 12.628 7.728C12.628 7.184 12.5 6.75733 12.244 6.448C11.988 6.13867 11.5933 5.984 11.06 5.984C10.5267 5.984 10.116 6.16533 9.828 6.528C9.54 6.88 9.39067 7.36533 9.38 7.984H7.204C7.24667 6.704 7.62533 5.73333 8.34 5.072C9.06533 4.41067 9.98267 4.08 11.092 4.08C12.308 4.08 13.2413 4.40533 13.892 5.056C14.5427 5.696 14.868 6.544 14.868 7.6C14.868 8.432 14.644 9.22667 14.196 9.984C13.748 10.7413 13.236 11.4027 12.66 11.968C12.084 12.5227 11.332 13.1947 10.404 13.984H15.124V15.84H7.22V14.176L8.052 13.472ZM16.5675 7.408C16.6208 6.34133 16.9942 5.52 17.6875 4.944C18.3915 4.35733 19.3142 4.064 20.4555 4.064C21.2342 4.064 21.9008 4.20267 22.4555 4.48C23.0102 4.74667 23.4262 5.11467 23.7035 5.584C23.9915 6.04267 24.1355 6.56533 24.1355 7.152C24.1355 7.824 23.9595 8.39467 23.6075 8.864C23.2662 9.32267 22.8555 9.632 22.3755 9.792V9.856C22.9942 10.048 23.4742 10.3893 23.8155 10.88C24.1675 11.3707 24.3435 12 24.3435 12.768C24.3435 13.408 24.1942 13.9787 23.8955 14.48C23.6075 14.9813 23.1755 15.376 22.5995 15.664C22.0342 15.9413 21.3515 16.08 20.5515 16.08C19.3462 16.08 18.3648 15.776 17.6075 15.168C16.8502 14.56 16.4502 13.664 16.4075 12.48H18.5835C18.6048 13.0027 18.7808 13.424 19.1115 13.744C19.4528 14.0533 19.9168 14.208 20.5035 14.208C21.0475 14.208 21.4635 14.0587 21.7515 13.76C22.0502 13.4507 22.1995 13.056 22.1995 12.576C22.1995 11.936 21.9968 11.4773 21.5915 11.2C21.1862 10.9227 20.5568 10.784 19.7035 10.784H19.2395V8.944H19.7035C21.2182 8.944 21.9755 8.43733 21.9755 7.424C21.9755 6.96533 21.8368 6.608 21.5595 6.352C21.2928 6.096 20.9035 5.968 20.3915 5.968C19.8902 5.968 19.5008 6.10667 19.2235 6.384C18.9568 6.65067 18.8022 6.992 18.7595 7.408H16.5675Z" fill="black"/>
<path d="M6.754 21.333V29H5.753V25.524H1.848V29H0.847V21.333H1.848V24.699H5.753V21.333H6.754ZM11.0922 29.099C10.5275 29.099 10.0142 28.9707 9.55221 28.714C9.09754 28.4573 8.73821 28.0943 8.47421 27.625C8.21754 27.1483 8.08921 26.5983 8.08921 25.975C8.08921 25.359 8.22121 24.8163 8.48521 24.347C8.75654 23.8703 9.12321 23.5073 9.58521 23.258C10.0472 23.0013 10.5642 22.873 11.1362 22.873C11.7082 22.873 12.2252 23.0013 12.6872 23.258C13.1492 23.5073 13.5122 23.8667 13.7762 24.336C14.0475 24.8053 14.1832 25.3517 14.1832 25.975C14.1832 26.5983 14.0439 27.1483 13.7652 27.625C13.4939 28.0943 13.1235 28.4573 12.6542 28.714C12.1849 28.9707 11.6642 29.099 11.0922 29.099ZM11.0922 28.219C11.4515 28.219 11.7889 28.1347 12.1042 27.966C12.4195 27.7973 12.6725 27.5443 12.8632 27.207C13.0612 26.8697 13.1602 26.459 13.1602 25.975C13.1602 25.491 13.0649 25.0803 12.8742 24.743C12.6835 24.4057 12.4342 24.1563 12.1262 23.995C11.8182 23.8263 11.4845 23.742 11.1252 23.742C10.7585 23.742 10.4212 23.8263 10.1132 23.995C9.81254 24.1563 9.57054 24.4057 9.38721 24.743C9.20388 25.0803 9.11221 25.491 9.11221 25.975C9.11221 26.4663 9.20021 26.8807 9.37621 27.218C9.55954 27.5553 9.80154 27.8083 10.1022 27.977C10.4029 28.1383 10.7329 28.219 11.0922 28.219ZM20.8453 22.972V29H19.8443V28.109C19.6537 28.417 19.386 28.659 19.0413 28.835C18.704 29.0037 18.33 29.088 17.9193 29.088C17.45 29.088 17.0283 28.9927 16.6543 28.802C16.2803 28.604 15.9833 28.3107 15.7633 27.922C15.5507 27.5333 15.4443 27.0603 15.4443 26.503V22.972H16.4343V26.371C16.4343 26.965 16.5847 27.4233 16.8853 27.746C17.186 28.0613 17.5967 28.219 18.1173 28.219C18.6527 28.219 19.0743 28.054 19.3823 27.724C19.6903 27.394 19.8443 26.9137 19.8443 26.283V22.972H20.8453ZM23.5365 23.951C23.7125 23.6063 23.9618 23.3387 24.2845 23.148C24.6145 22.9573 25.0141 22.862 25.4835 22.862V23.896H25.2195C24.0975 23.896 23.5365 24.5047 23.5365 25.722V29H22.5355V22.972H23.5365V23.951ZM28.773 29.099C28.311 29.099 27.8967 29.022 27.53 28.868C27.1633 28.7067 26.8737 28.4867 26.661 28.208C26.4483 27.922 26.331 27.5957 26.309 27.229H27.343C27.3723 27.5297 27.5117 27.7753 27.761 27.966C28.0177 28.1567 28.3513 28.252 28.762 28.252C29.1433 28.252 29.444 28.1677 29.664 27.999C29.884 27.8303 29.994 27.6177 29.994 27.361C29.994 27.097 29.8767 26.9027 29.642 26.778C29.4073 26.646 29.0443 26.5177 28.553 26.393C28.1057 26.2757 27.739 26.1583 27.453 26.041C27.1743 25.9163 26.9323 25.7367 26.727 25.502C26.529 25.26 26.43 24.9447 26.43 24.556C26.43 24.248 26.5217 23.9657 26.705 23.709C26.8883 23.4523 27.1487 23.2507 27.486 23.104C27.8233 22.95 28.2083 22.873 28.641 22.873C29.3083 22.873 29.8473 23.0417 30.258 23.379C30.6687 23.7163 30.8887 24.1783 30.918 24.765H29.917C29.895 24.4497 29.7667 24.1967 29.532 24.006C29.3047 23.8153 28.9967 23.72 28.608 23.72C28.2487 23.72 27.9627 23.797 27.75 23.951C27.5373 24.105 27.431 24.3067 27.431 24.556C27.431 24.754 27.4933 24.919 27.618 25.051C27.75 25.1757 27.9113 25.2783 28.102 25.359C28.3 25.4323 28.5713 25.5167 28.916 25.612C29.3487 25.7293 29.7007 25.8467 29.972 25.964C30.2433 26.074 30.4743 26.2427 30.665 26.47C30.863 26.6973 30.9657 26.9943 30.973 27.361C30.973 27.691 30.8813 27.988 30.698 28.252C30.5147 28.516 30.2543 28.725 29.917 28.879C29.587 29.0257 29.2057 29.099 28.773 29.099Z" fill="black"/>
</svg>
