<svg width="48" height="34" viewBox="0 0 48 34" fill="none" xmlns="http://www.w3.org/2000/svg">
<path d="M14.88 7.408C14.9333 6.34133 15.3067 5.52 16 4.944C16.704 4.35733 17.6267 4.064 18.768 4.064C19.5467 4.064 20.2133 4.20267 20.768 4.48C21.3227 4.74667 21.7387 5.11467 22.016 5.584C22.304 6.04267 22.448 6.56533 22.448 7.152C22.448 7.824 22.272 8.39467 21.92 8.864C21.5787 9.32267 21.168 9.632 20.688 9.792V9.856C21.3067 10.048 21.7867 10.3893 22.128 10.88C22.48 11.3707 22.656 12 22.656 12.768C22.656 13.408 22.5067 13.9787 22.208 14.48C21.92 14.9813 21.488 15.376 20.912 15.664C20.3467 15.9413 19.664 16.08 18.864 16.08C17.6587 16.08 16.6773 15.776 15.92 15.168C15.1627 14.56 14.7627 13.664 14.72 12.48H16.896C16.9173 13.0027 17.0933 13.424 17.424 13.744C17.7653 14.0533 18.2293 14.208 18.816 14.208C19.36 14.208 19.776 14.0587 20.064 13.76C20.3627 13.4507 20.512 13.056 20.512 12.576C20.512 11.936 20.3093 11.4773 19.904 11.2C19.4987 10.9227 18.8693 10.784 18.016 10.784H17.552V8.944H18.016C19.5307 8.944 20.288 8.43733 20.288 7.424C20.288 6.96533 20.1493 6.608 19.872 6.352C19.6053 6.096 19.216 5.968 18.704 5.968C18.2027 5.968 17.8133 6.10667 17.536 6.384C17.2693 6.65067 17.1147 6.992 17.072 7.408H14.88ZM32.2661 6.272H27.0821V9.008C27.3061 8.73067 27.6261 8.50667 28.0421 8.336C28.4581 8.15467 28.9008 8.064 29.3701 8.064C30.2235 8.064 30.9221 8.25067 31.4661 8.624C32.0101 8.99733 32.4048 9.47733 32.6501 10.064C32.8955 10.64 33.0181 11.2587 33.0181 11.92C33.0181 13.1467 32.6661 14.1333 31.9621 14.88C31.2688 15.6267 30.2768 16 28.9861 16C27.7701 16 26.7995 15.696 26.0741 15.088C25.3488 14.48 24.9381 13.6853 24.8421 12.704H27.0181C27.1141 13.1307 27.3275 13.472 27.6581 13.728C27.9995 13.984 28.4315 14.112 28.9541 14.112C29.5835 14.112 30.0581 13.9147 30.3781 13.52C30.6981 13.1253 30.8581 12.6027 30.8581 11.952C30.8581 11.2907 30.6928 10.7893 30.3621 10.448C30.0421 10.096 29.5675 9.92 28.9381 9.92C28.4901 9.92 28.1168 10.032 27.8181 10.256C27.5195 10.48 27.3061 10.7787 27.1781 11.152H25.0341V4.304H32.2661V6.272Z" fill="black"/>
<path d="M3.278 29.077C2.772 29.077 2.31733 28.989 1.914 28.813C1.518 28.6297 1.20633 28.3803 0.979 28.065C0.751667 27.7423 0.634333 27.372 0.627 26.954H1.694C1.73067 27.3133 1.87733 27.6177 2.134 27.867C2.398 28.109 2.77933 28.23 3.278 28.23C3.75467 28.23 4.12867 28.1127 4.4 27.878C4.67867 27.636 4.818 27.328 4.818 26.954C4.818 26.6607 4.73733 26.4223 4.576 26.239C4.41467 26.0557 4.213 25.9163 3.971 25.821C3.729 25.7257 3.40267 25.623 2.992 25.513C2.486 25.381 2.079 25.249 1.771 25.117C1.47033 24.985 1.21 24.7797 0.99 24.501C0.777333 24.215 0.671 23.8337 0.671 23.357C0.671 22.939 0.777333 22.5687 0.99 22.246C1.20267 21.9233 1.49967 21.674 1.881 21.498C2.26967 21.322 2.71333 21.234 3.212 21.234C3.93067 21.234 4.51733 21.4137 4.972 21.773C5.434 22.1323 5.69433 22.609 5.753 23.203H4.653C4.61633 22.9097 4.46233 22.653 4.191 22.433C3.91967 22.2057 3.56033 22.092 3.113 22.092C2.695 22.092 2.354 22.202 2.09 22.422C1.826 22.6347 1.694 22.9353 1.694 23.324C1.694 23.6027 1.771 23.83 1.925 24.006C2.08633 24.182 2.28067 24.3177 2.508 24.413C2.74267 24.501 3.069 24.6037 3.487 24.721C3.993 24.8603 4.4 24.9997 4.708 25.139C5.016 25.271 5.28 25.48 5.5 25.766C5.72 26.0447 5.83 26.426 5.83 26.91C5.83 27.284 5.731 27.636 5.533 27.966C5.335 28.296 5.04167 28.5637 4.653 28.769C4.26433 28.9743 3.806 29.077 3.278 29.077ZM12.8031 25.755C12.8031 25.9457 12.7921 26.1473 12.7701 26.36H7.95205C7.98872 26.954 8.19039 27.4197 8.55705 27.757C8.93105 28.087 9.38205 28.252 9.91005 28.252C10.3427 28.252 10.7021 28.153 10.9881 27.955C11.2814 27.7497 11.4867 27.4783 11.6041 27.141H12.6821C12.5207 27.7203 12.1981 28.1933 11.7141 28.56C11.2301 28.9193 10.6287 29.099 9.91005 29.099C9.33805 29.099 8.82472 28.9707 8.37005 28.714C7.92272 28.4573 7.57072 28.0943 7.31405 27.625C7.05739 27.1483 6.92905 26.5983 6.92905 25.975C6.92905 25.3517 7.05372 24.8053 7.30305 24.336C7.55239 23.8667 7.90072 23.5073 8.34805 23.258C8.80272 23.0013 9.32339 22.873 9.91005 22.873C10.4821 22.873 10.9881 22.9977 11.4281 23.247C11.8681 23.4963 12.2054 23.841 12.4401 24.281C12.6821 24.7137 12.8031 25.205 12.8031 25.755ZM11.7691 25.546C11.7691 25.1647 11.6847 24.8383 11.5161 24.567C11.3474 24.2883 11.1164 24.0793 10.8231 23.94C10.5371 23.7933 10.2181 23.72 9.86605 23.72C9.36005 23.72 8.92739 23.8813 8.56805 24.204C8.21605 24.5267 8.01439 24.974 7.96305 25.546H11.7691ZM13.7503 25.975C13.7503 25.3517 13.875 24.809 14.1243 24.347C14.3737 23.8777 14.7183 23.5147 15.1583 23.258C15.6057 23.0013 16.1153 22.873 16.6873 22.873C17.428 22.873 18.0367 23.0527 18.5133 23.412C18.9973 23.7713 19.3163 24.27 19.4703 24.908H18.3923C18.2897 24.5413 18.088 24.2517 17.7873 24.039C17.494 23.8263 17.1273 23.72 16.6873 23.72C16.1153 23.72 15.6533 23.918 15.3013 24.314C14.9493 24.7027 14.7733 25.2563 14.7733 25.975C14.7733 26.701 14.9493 27.262 15.3013 27.658C15.6533 28.054 16.1153 28.252 16.6873 28.252C17.1273 28.252 17.494 28.1493 17.7873 27.944C18.0807 27.7387 18.2823 27.4453 18.3923 27.064H19.4703C19.309 27.68 18.9863 28.175 18.5023 28.549C18.0183 28.9157 17.4133 29.099 16.6873 29.099C16.1153 29.099 15.6057 28.9707 15.1583 28.714C14.7183 28.4573 14.3737 28.0943 14.1243 27.625C13.875 27.1557 13.7503 26.6057 13.7503 25.975ZM23.435 29.099C22.8703 29.099 22.357 28.9707 21.895 28.714C21.4403 28.4573 21.081 28.0943 20.817 27.625C20.5603 27.1483 20.432 26.5983 20.432 25.975C20.432 25.359 20.564 24.8163 20.828 24.347C21.0993 23.8703 21.466 23.5073 21.928 23.258C22.39 23.0013 22.907 22.873 23.479 22.873C24.051 22.873 24.568 23.0013 25.03 23.258C25.492 23.5073 25.855 23.8667 26.119 24.336C26.3903 24.8053 26.526 25.3517 26.526 25.975C26.526 26.5983 26.3867 27.1483 26.108 27.625C25.8367 28.0943 25.4663 28.4573 24.997 28.714C24.5277 28.9707 24.007 29.099 23.435 29.099ZM23.435 28.219C23.7943 28.219 24.1317 28.1347 24.447 27.966C24.7623 27.7973 25.0153 27.5443 25.206 27.207C25.404 26.8697 25.503 26.459 25.503 25.975C25.503 25.491 25.4077 25.0803 25.217 24.743C25.0263 24.4057 24.777 24.1563 24.469 23.995C24.161 23.8263 23.8273 23.742 23.468 23.742C23.1013 23.742 22.764 23.8263 22.456 23.995C22.1553 24.1563 21.9133 24.4057 21.73 24.743C21.5467 25.0803 21.455 25.491 21.455 25.975C21.455 26.4663 21.543 26.8807 21.719 27.218C21.9023 27.5553 22.1443 27.8083 22.445 27.977C22.7457 28.1383 23.0757 28.219 23.435 28.219ZM30.7791 22.862C31.5125 22.862 32.1065 23.0857 32.5611 23.533C33.0158 23.973 33.2431 24.611 33.2431 25.447V29H32.2531V25.59C32.2531 24.9887 32.1028 24.5303 31.8021 24.215C31.5015 23.8923 31.0908 23.731 30.5701 23.731C30.0421 23.731 29.6205 23.896 29.3051 24.226C28.9971 24.556 28.8431 25.0363 28.8431 25.667V29H27.8421V22.972H28.8431V23.83C29.0411 23.522 29.3088 23.2837 29.6461 23.115C29.9908 22.9463 30.3685 22.862 30.7791 22.862ZM34.5043 25.964C34.5043 25.348 34.6289 24.809 34.8783 24.347C35.1276 23.8777 35.4686 23.5147 35.9013 23.258C36.3413 23.0013 36.8326 22.873 37.3753 22.873C37.8446 22.873 38.2809 22.983 38.6843 23.203C39.0876 23.4157 39.3956 23.698 39.6083 24.05V20.86H40.6203V29H39.6083V27.867C39.4103 28.2263 39.1169 28.5233 38.7283 28.758C38.3396 28.9853 37.8849 29.099 37.3643 29.099C36.8289 29.099 36.3413 28.967 35.9013 28.703C35.4686 28.439 35.1276 28.0687 34.8783 27.592C34.6289 27.1153 34.5043 26.5727 34.5043 25.964ZM39.6083 25.975C39.6083 25.5203 39.5166 25.1243 39.3333 24.787C39.1499 24.4497 38.9006 24.193 38.5853 24.017C38.2773 23.8337 37.9363 23.742 37.5623 23.742C37.1883 23.742 36.8473 23.83 36.5393 24.006C36.2313 24.182 35.9856 24.4387 35.8023 24.776C35.6189 25.1133 35.5273 25.5093 35.5273 25.964C35.5273 26.426 35.6189 26.8293 35.8023 27.174C35.9856 27.5113 36.2313 27.7717 36.5393 27.955C36.8473 28.131 37.1883 28.219 37.5623 28.219C37.9363 28.219 38.2773 28.131 38.5853 27.955C38.9006 27.7717 39.1499 27.5113 39.3333 27.174C39.5166 26.8293 39.6083 26.4297 39.6083 25.975ZM44.4458 29.099C43.9838 29.099 43.5695 29.022 43.2028 28.868C42.8362 28.7067 42.5465 28.4867 42.3338 28.208C42.1212 27.922 42.0038 27.5957 41.9818 27.229H43.0158C43.0452 27.5297 43.1845 27.7753 43.4338 27.966C43.6905 28.1567 44.0242 28.252 44.4348 28.252C44.8162 28.252 45.1168 28.1677 45.3368 27.999C45.5568 27.8303 45.6668 27.6177 45.6668 27.361C45.6668 27.097 45.5495 26.9027 45.3148 26.778C45.0802 26.646 44.7172 26.5177 44.2258 26.393C43.7785 26.2757 43.4118 26.1583 43.1258 26.041C42.8472 25.9163 42.6052 25.7367 42.3998 25.502C42.2018 25.26 42.1028 24.9447 42.1028 24.556C42.1028 24.248 42.1945 23.9657 42.3778 23.709C42.5612 23.4523 42.8215 23.2507 43.1588 23.104C43.4962 22.95 43.8812 22.873 44.3138 22.873C44.9812 22.873 45.5202 23.0417 45.9308 23.379C46.3415 23.7163 46.5615 24.1783 46.5908 24.765H45.5898C45.5678 24.4497 45.4395 24.1967 45.2048 24.006C44.9775 23.8153 44.6695 23.72 44.2808 23.72C43.9215 23.72 43.6355 23.797 43.4228 23.951C43.2102 24.105 43.1038 24.3067 43.1038 24.556C43.1038 24.754 43.1662 24.919 43.2908 25.051C43.4228 25.1757 43.5842 25.2783 43.7748 25.359C43.9728 25.4323 44.2442 25.5167 44.5888 25.612C45.0215 25.7293 45.3735 25.8467 45.6448 25.964C45.9162 26.074 46.1472 26.2427 46.3378 26.47C46.5358 26.6973 46.6385 26.9943 46.6458 27.361C46.6458 27.691 46.5542 27.988 46.3708 28.252C46.1875 28.516 45.9272 28.725 45.5898 28.879C45.2598 29.0257 44.8785 29.099 44.4458 29.099Z" fill="black"/>
</svg>
