<svg width="28" height="34" viewBox="0 0 28 34" fill="none" xmlns="http://www.w3.org/2000/svg">
<path d="M4.348 10.016C4.348 8.17067 4.67867 6.72533 5.34 5.68C6.012 4.63467 7.12133 4.112 8.668 4.112C10.2147 4.112 11.3187 4.63467 11.98 5.68C12.652 6.72533 12.988 8.17067 12.988 10.016C12.988 11.872 12.652 13.328 11.98 14.384C11.3187 15.44 10.2147 15.968 8.668 15.968C7.12133 15.968 6.012 15.44 5.34 14.384C4.67867 13.328 4.348 11.872 4.348 10.016ZM10.78 10.016C10.78 9.22667 10.7267 8.56533 10.62 8.032C10.524 7.488 10.3213 7.04533 10.012 6.704C9.71333 6.36267 9.26533 6.192 8.668 6.192C8.07067 6.192 7.61733 6.36267 7.308 6.704C7.00933 7.04533 6.80667 7.488 6.7 8.032C6.604 8.56533 6.556 9.22667 6.556 10.016C6.556 10.8267 6.604 11.5093 6.7 12.064C6.796 12.608 6.99867 13.0507 7.308 13.392C7.61733 13.7227 8.07067 13.888 8.668 13.888C9.26533 13.888 9.71867 13.7227 10.028 13.392C10.3373 13.0507 10.54 12.608 10.636 12.064C10.732 11.5093 10.78 10.8267 10.78 10.016ZM22.5318 6.272H17.3478V9.008C17.5718 8.73067 17.8918 8.50667 18.3078 8.336C18.7238 8.15467 19.1664 8.064 19.6358 8.064C20.4891 8.064 21.1878 8.25067 21.7318 8.624C22.2758 8.99733 22.6704 9.47733 22.9158 10.064C23.1611 10.64 23.2838 11.2587 23.2838 11.92C23.2838 13.1467 22.9318 14.1333 22.2278 14.88C21.5344 15.6267 20.5424 16 19.2518 16C18.0358 16 17.0651 15.696 16.3398 15.088C15.6144 14.48 15.2038 13.6853 15.1078 12.704H17.2838C17.3798 13.1307 17.5931 13.472 17.9238 13.728C18.2651 13.984 18.6971 14.112 19.2198 14.112C19.8491 14.112 20.3238 13.9147 20.6438 13.52C20.9638 13.1253 21.1238 12.6027 21.1238 11.952C21.1238 11.2907 20.9584 10.7893 20.6278 10.448C20.3078 10.096 19.8331 9.92 19.2038 9.92C18.7558 9.92 18.3824 10.032 18.0838 10.256C17.7851 10.48 17.5718 10.7787 17.4438 11.152H15.2998V4.304H22.5318V6.272Z" fill="black"/>
<path d="M3.234 21.333C4.07 21.333 4.79233 21.4907 5.401 21.806C6.017 22.114 6.48633 22.5577 6.809 23.137C7.139 23.7163 7.304 24.3983 7.304 25.183C7.304 25.9677 7.139 26.6497 6.809 27.229C6.48633 27.801 6.017 28.241 5.401 28.549C4.79233 28.8497 4.07 29 3.234 29H0.847V21.333H3.234ZM3.234 28.175C4.224 28.175 4.97933 27.9147 5.5 27.394C6.02067 26.866 6.281 26.129 6.281 25.183C6.281 24.2297 6.017 23.4853 5.489 22.95C4.96833 22.4147 4.21667 22.147 3.234 22.147H1.848V28.175H3.234ZM8.25034 25.964C8.25034 25.348 8.37501 24.809 8.62434 24.347C8.87368 23.8777 9.21468 23.5147 9.64734 23.258C10.0873 23.0013 10.575 22.873 11.1103 22.873C11.6383 22.873 12.0967 22.9867 12.4853 23.214C12.874 23.4413 13.1637 23.7273 13.3543 24.072V22.972H14.3663V29H13.3543V27.878C13.1563 28.23 12.8593 28.5233 12.4633 28.758C12.0747 28.9853 11.62 29.099 11.0993 29.099C10.564 29.099 10.08 28.967 9.64734 28.703C9.21468 28.439 8.87368 28.0687 8.62434 27.592C8.37501 27.1153 8.25034 26.5727 8.25034 25.964ZM13.3543 25.975C13.3543 25.5203 13.2627 25.1243 13.0793 24.787C12.896 24.4497 12.6467 24.193 12.3313 24.017C12.0233 23.8337 11.6823 23.742 11.3083 23.742C10.9343 23.742 10.5933 23.83 10.2853 24.006C9.97734 24.182 9.73168 24.4387 9.54834 24.776C9.36501 25.1133 9.27334 25.5093 9.27334 25.964C9.27334 26.426 9.36501 26.8293 9.54834 27.174C9.73168 27.5113 9.97734 27.7717 10.2853 27.955C10.5933 28.131 10.9343 28.219 11.3083 28.219C11.6823 28.219 12.0233 28.131 12.3313 27.955C12.6467 27.7717 12.896 27.5113 13.0793 27.174C13.2627 26.8293 13.3543 26.4297 13.3543 25.975ZM21.2499 22.972L17.6199 31.838H16.5859L17.7739 28.934L15.3429 22.972H16.4539L18.3459 27.856L20.2159 22.972H21.2499ZM24.3902 29.099C23.9282 29.099 23.5138 29.022 23.1472 28.868C22.7805 28.7067 22.4908 28.4867 22.2782 28.208C22.0655 27.922 21.9482 27.5957 21.9262 27.229H22.9602C22.9895 27.5297 23.1288 27.7753 23.3782 27.966C23.6348 28.1567 23.9685 28.252 24.3792 28.252C24.7605 28.252 25.0612 28.1677 25.2812 27.999C25.5012 27.8303 25.6112 27.6177 25.6112 27.361C25.6112 27.097 25.4938 26.9027 25.2592 26.778C25.0245 26.646 24.6615 26.5177 24.1702 26.393C23.7228 26.2757 23.3562 26.1583 23.0702 26.041C22.7915 25.9163 22.5495 25.7367 22.3442 25.502C22.1462 25.26 22.0472 24.9447 22.0472 24.556C22.0472 24.248 22.1388 23.9657 22.3222 23.709C22.5055 23.4523 22.7658 23.2507 23.1032 23.104C23.4405 22.95 23.8255 22.873 24.2582 22.873C24.9255 22.873 25.4645 23.0417 25.8752 23.379C26.2858 23.7163 26.5058 24.1783 26.5352 24.765H25.5342C25.5122 24.4497 25.3838 24.1967 25.1492 24.006C24.9218 23.8153 24.6138 23.72 24.2252 23.72C23.8658 23.72 23.5798 23.797 23.3672 23.951C23.1545 24.105 23.0482 24.3067 23.0482 24.556C23.0482 24.754 23.1105 24.919 23.2352 25.051C23.3672 25.1757 23.5285 25.2783 23.7192 25.359C23.9172 25.4323 24.1885 25.5167 24.5332 25.612C24.9658 25.7293 25.3178 25.8467 25.5892 25.964C25.8605 26.074 26.0915 26.2427 26.2822 26.47C26.4802 26.6973 26.5828 26.9943 26.5902 27.361C26.5902 27.691 26.4985 27.988 26.3152 28.252C26.1318 28.516 25.8715 28.725 25.5342 28.879C25.2042 29.0257 24.8228 29.099 24.3902 29.099Z" fill="black"/>
</svg>
