<svg width="42" height="34" viewBox="0 0 42 34" fill="none" xmlns="http://www.w3.org/2000/svg">
<path d="M19.188 6.272H14.004V9.008C14.228 8.73067 14.548 8.50667 14.964 8.336C15.38 8.15467 15.8227 8.064 16.292 8.064C17.1453 8.064 17.844 8.25067 18.388 8.624C18.932 8.99733 19.3267 9.47733 19.572 10.064C19.8173 10.64 19.94 11.2587 19.94 11.92C19.94 13.1467 19.588 14.1333 18.884 14.88C18.1907 15.6267 17.1987 16 15.908 16C14.692 16 13.7213 15.696 12.996 15.088C12.2707 14.48 11.86 13.6853 11.764 12.704H13.94C14.036 13.1307 14.2493 13.472 14.58 13.728C14.9213 13.984 15.3533 14.112 15.876 14.112C16.5053 14.112 16.98 13.9147 17.3 13.52C17.62 13.1253 17.78 12.6027 17.78 11.952C17.78 11.2907 17.6147 10.7893 17.284 10.448C16.964 10.096 16.4893 9.92 15.86 9.92C15.412 9.92 15.0387 10.032 14.74 10.256C14.4413 10.48 14.228 10.7787 14.1 11.152H11.956V4.304H19.188V6.272ZM24.2369 12.72C24.3222 13.1893 24.5142 13.552 24.8129 13.808C25.1222 14.0533 25.5329 14.176 26.0449 14.176C26.7062 14.176 27.1862 13.904 27.4849 13.36C27.7835 12.8053 27.9329 11.8773 27.9329 10.576C27.6875 10.9173 27.3409 11.184 26.8929 11.376C26.4555 11.568 25.9809 11.664 25.4689 11.664C24.7862 11.664 24.1675 11.5253 23.6129 11.248C23.0689 10.96 22.6369 10.5387 22.3169 9.984C21.9969 9.41867 21.8369 8.736 21.8369 7.936C21.8369 6.752 22.1889 5.81333 22.8929 5.12C23.5969 4.416 24.5569 4.064 25.7729 4.064C27.2875 4.064 28.3542 4.54933 28.9729 5.52C29.6022 6.49067 29.9169 7.952 29.9169 9.904C29.9169 11.2907 29.7942 12.4267 29.5489 13.312C29.3142 14.1973 28.9035 14.8693 28.3169 15.328C27.7409 15.7867 26.9515 16.016 25.9489 16.016C25.1595 16.016 24.4875 15.8667 23.9329 15.568C23.3782 15.2587 22.9515 14.8587 22.6529 14.368C22.3649 13.8667 22.1995 13.3173 22.1569 12.72H24.2369ZM25.9329 9.84C26.4875 9.84 26.9249 9.66933 27.2449 9.328C27.5649 8.98667 27.7249 8.528 27.7249 7.952C27.7249 7.32267 27.5542 6.83733 27.2129 6.496C26.8822 6.144 26.4289 5.968 25.8529 5.968C25.2769 5.968 24.8182 6.14933 24.4769 6.512C24.1462 6.864 23.9809 7.33333 23.9809 7.92C23.9809 8.48533 24.1409 8.94933 24.4609 9.312C24.7915 9.664 25.2822 9.84 25.9329 9.84Z" fill="black"/>
<path d="M8.124 21.388V29H7.123V23.324L4.593 29H3.889L1.348 23.313V29H0.347V21.388H1.425L4.241 27.68L7.057 21.388H8.124ZM10.3386 21.993C10.1479 21.993 9.98661 21.927 9.85461 21.795C9.72261 21.663 9.65661 21.5017 9.65661 21.311C9.65661 21.1203 9.72261 20.959 9.85461 20.827C9.98661 20.695 10.1479 20.629 10.3386 20.629C10.5219 20.629 10.6759 20.695 10.8006 20.827C10.9326 20.959 10.9986 21.1203 10.9986 21.311C10.9986 21.5017 10.9326 21.663 10.8006 21.795C10.6759 21.927 10.5219 21.993 10.3386 21.993ZM10.8226 22.972V29H9.82161V22.972H10.8226ZM15.4656 22.862C16.199 22.862 16.793 23.0857 17.2476 23.533C17.7023 23.973 17.9296 24.611 17.9296 25.447V29H16.9396V25.59C16.9396 24.9887 16.7893 24.5303 16.4886 24.215C16.188 23.8923 15.7773 23.731 15.2566 23.731C14.7286 23.731 14.307 23.896 13.9916 24.226C13.6836 24.556 13.5296 25.0363 13.5296 25.667V29H12.5286V22.972H13.5296V23.83C13.7276 23.522 13.9953 23.2837 14.3326 23.115C14.6773 22.9463 15.055 22.862 15.4656 22.862ZM24.9108 22.972V29H23.9098V28.109C23.7191 28.417 23.4514 28.659 23.1068 28.835C22.7694 29.0037 22.3954 29.088 21.9848 29.088C21.5154 29.088 21.0938 28.9927 20.7198 28.802C20.3458 28.604 20.0488 28.3107 19.8288 27.922C19.6161 27.5333 19.5098 27.0603 19.5098 26.503V22.972H20.4998V26.371C20.4998 26.965 20.6501 27.4233 20.9508 27.746C21.2514 28.0613 21.6621 28.219 22.1828 28.219C22.7181 28.219 23.1398 28.054 23.4478 27.724C23.7558 27.394 23.9098 26.9137 23.9098 26.283V22.972H24.9108ZM27.8219 23.797V27.35C27.8219 27.6433 27.8842 27.8523 28.0089 27.977C28.1336 28.0943 28.3499 28.153 28.6579 28.153H29.3949V29H28.4929C27.9356 29 27.5176 28.8717 27.2389 28.615C26.9602 28.3583 26.8209 27.9367 26.8209 27.35V23.797H26.0399V22.972H26.8209V21.454H27.8219V22.972H29.3949V23.797H27.8219ZM36.1077 25.755C36.1077 25.9457 36.0967 26.1473 36.0747 26.36H31.2567C31.2934 26.954 31.4951 27.4197 31.8617 27.757C32.2357 28.087 32.6867 28.252 33.2147 28.252C33.6474 28.252 34.0067 28.153 34.2927 27.955C34.5861 27.7497 34.7914 27.4783 34.9087 27.141H35.9867C35.8254 27.7203 35.5027 28.1933 35.0187 28.56C34.5347 28.9193 33.9334 29.099 33.2147 29.099C32.6427 29.099 32.1294 28.9707 31.6747 28.714C31.2274 28.4573 30.8754 28.0943 30.6187 27.625C30.3621 27.1483 30.2337 26.5983 30.2337 25.975C30.2337 25.3517 30.3584 24.8053 30.6077 24.336C30.8571 23.8667 31.2054 23.5073 31.6527 23.258C32.1074 23.0013 32.6281 22.873 33.2147 22.873C33.7867 22.873 34.2927 22.9977 34.7327 23.247C35.1727 23.4963 35.5101 23.841 35.7447 24.281C35.9867 24.7137 36.1077 25.205 36.1077 25.755ZM35.0737 25.546C35.0737 25.1647 34.9894 24.8383 34.8207 24.567C34.6521 24.2883 34.4211 24.0793 34.1277 23.94C33.8417 23.7933 33.5227 23.72 33.1707 23.72C32.6647 23.72 32.2321 23.8813 31.8727 24.204C31.5207 24.5267 31.3191 24.974 31.2677 25.546H35.0737ZM39.563 29.099C39.101 29.099 38.6867 29.022 38.32 28.868C37.9534 28.7067 37.6637 28.4867 37.451 28.208C37.2384 27.922 37.121 27.5957 37.099 27.229H38.133C38.1624 27.5297 38.3017 27.7753 38.551 27.966C38.8077 28.1567 39.1414 28.252 39.552 28.252C39.9334 28.252 40.234 28.1677 40.454 27.999C40.674 27.8303 40.784 27.6177 40.784 27.361C40.784 27.097 40.6667 26.9027 40.432 26.778C40.1974 26.646 39.8344 26.5177 39.343 26.393C38.8957 26.2757 38.529 26.1583 38.243 26.041C37.9644 25.9163 37.7224 25.7367 37.517 25.502C37.319 25.26 37.22 24.9447 37.22 24.556C37.22 24.248 37.3117 23.9657 37.495 23.709C37.6784 23.4523 37.9387 23.2507 38.276 23.104C38.6134 22.95 38.9984 22.873 39.431 22.873C40.0984 22.873 40.6374 23.0417 41.048 23.379C41.4587 23.7163 41.6787 24.1783 41.708 24.765H40.707C40.685 24.4497 40.5567 24.1967 40.322 24.006C40.0947 23.8153 39.7867 23.72 39.398 23.72C39.0387 23.72 38.7527 23.797 38.54 23.951C38.3274 24.105 38.221 24.3067 38.221 24.556C38.221 24.754 38.2834 24.919 38.408 25.051C38.54 25.1757 38.7014 25.2783 38.892 25.359C39.09 25.4323 39.3614 25.5167 39.706 25.612C40.1387 25.7293 40.4907 25.8467 40.762 25.964C41.0334 26.074 41.2644 26.2427 41.455 26.47C41.653 26.6973 41.7557 26.9943 41.763 27.361C41.763 27.691 41.6714 27.988 41.488 28.252C41.3047 28.516 41.0444 28.725 40.707 28.879C40.377 29.0257 39.9957 29.099 39.563 29.099Z" fill="black"/>
</svg>
